<svg width="697" height="208" viewBox="0 0 697 208" fill="none" xmlns="http://www.w3.org/2000/svg">
<g clip-path="url(#clip0_1806_5210)">
<mask id="mask0_1806_5210" style="mask-type:luminance" maskUnits="userSpaceOnUse" x="0" y="0" width="697" height="208">
<path d="M0.223389 208H696.67V6.87489e-05H0.223389V208Z" fill="white"/>
</mask>
<g mask="url(#mask0_1806_5210)">
<path d="M89.4692 206.119C89.4692 206.119 0.223877 179.775 0.223877 49.7588V0.00012207H178.715V49.7588C178.715 175.124 89.4692 206.119 89.4692 206.119Z" fill="#51AF3E"/>
<path d="M228.298 99.8303V29.4823H271.393V34.6663C271.393 39.9543 267.105 44.2437 261.815 44.2437H245.517V59.001H266.967V63.9997C266.967 69.3903 262.598 73.7583 257.207 73.7583H245.517V99.8303H228.298Z" fill="white"/>
<path d="M281.132 99.8303V29.4823H305.63C311.861 29.4823 316.422 30.0397 319.308 31.157C323.374 32.7223 326.554 35.2676 328.852 38.777C331.146 42.289 332.293 46.5677 332.293 51.621C332.293 55.553 331.376 59.309 329.541 62.8836C327.704 66.461 325.112 69.101 321.765 70.8077V71.0036C322.421 71.8556 323.306 73.2663 324.426 75.2343L338.1 99.8303H318.912L306.417 76.1156H298.35V99.8303H281.132ZM298.35 61.357H305.829C308.646 61.357 310.842 60.6063 312.42 59.0956C313.993 57.5903 314.78 55.4597 314.78 52.7037C314.78 48.829 313.402 46.3356 310.65 45.2223C309.14 44.569 306.974 44.2437 304.154 44.2437H298.35V61.357Z" fill="white"/>
<path d="M345.874 99.8303V29.4823H389.955V44.2437H363.092V57.029H384.543V71.7863H363.092V85.073H391.332V99.8303H345.874Z" fill="white"/>
<path d="M402.349 99.8303V29.4823H446.431V44.2437H419.568V57.029H441.019V71.7863H419.568V85.073H447.808V99.8303H402.349Z" fill="white"/>
<path d="M458.825 99.8303V29.4823H483.815C494.963 29.4823 503.801 32.5783 510.33 38.777C516.858 44.9796 520.125 53.5557 520.125 64.5117C520.125 75.5277 516.858 84.1703 510.33 90.4343C503.801 96.6983 494.963 99.8303 483.815 99.8303H458.825ZM476.043 85.073H483.127C489.159 85.073 493.869 83.3036 497.243 79.7623C500.626 76.2196 502.311 71.1343 502.311 64.5117C502.311 57.9503 500.607 52.933 497.199 49.4557C493.785 45.9757 489.094 44.2437 483.127 44.2437H476.043V85.073Z" fill="white"/>
<path d="M527.497 64.2146C527.497 53.9773 530.945 45.4399 537.829 38.5786C544.715 31.7266 553.536 28.2973 564.298 28.2973C575.054 28.2973 583.874 31.7266 590.765 38.5786C597.653 45.4399 601.093 53.9773 601.093 64.2146C601.093 74.7053 597.653 83.4639 590.765 90.4853C583.874 97.5039 575.054 101.009 564.298 101.009C553.536 101.009 544.715 97.5039 537.829 90.4853C530.945 83.4639 527.497 74.7053 527.497 64.2146ZM545.304 64.2146C545.304 70.2506 547.09 75.2639 550.665 79.2693C554.24 83.2639 558.789 85.2693 564.298 85.2693C569.805 85.2693 574.347 83.2639 577.922 79.2693C581.495 75.2639 583.283 70.2506 583.283 64.2146C583.283 58.4439 581.495 53.6333 577.922 49.7946C574.347 45.9586 569.805 44.0453 564.298 44.0453C558.789 44.0453 554.24 45.9586 550.665 49.7946C547.09 53.6333 545.304 58.4439 545.304 64.2146Z" fill="white"/>
<path d="M609.259 99.8303L615.063 29.4823H633.761L643.991 59.193L647.533 70.8077H647.733C649.045 66.085 650.223 62.209 651.274 59.193L661.503 29.4823H680.202L685.909 99.8303H668.693L666.525 68.1476C666.39 66.5743 666.329 64.805 666.329 62.837C666.329 60.865 666.358 59.2943 666.423 58.109L666.525 56.3437H666.329C664.753 61.2637 663.439 65.1956 662.395 68.1476L655.015 88.517H640.258L632.877 68.1476L628.937 56.3437H628.741C629.002 60.6717 629.002 64.605 628.741 68.1476L626.579 99.8303H609.259Z" fill="white"/>
<path d="M229.088 175.108V133.032H239.387V149.862H254.688V133.032H264.984V175.108H254.688V158.628H239.387V175.108H229.088Z" fill="white"/>
<path d="M271.518 153.806C271.518 147.683 273.576 142.575 277.699 138.471C281.816 134.371 287.091 132.323 293.526 132.323C299.96 132.323 305.238 134.371 309.356 138.471C313.474 142.575 315.536 147.683 315.536 153.806C315.536 160.081 313.474 165.319 309.356 169.517C305.238 173.718 299.96 175.814 293.526 175.814C287.091 175.814 281.816 173.718 277.699 169.517C273.576 165.319 271.518 160.081 271.518 153.806ZM282.168 153.806C282.168 157.417 283.238 160.414 285.376 162.811C287.511 165.199 290.23 166.399 293.526 166.399C296.824 166.399 299.536 165.199 301.678 162.811C303.814 160.414 304.883 157.417 304.883 153.806C304.883 150.355 303.814 147.477 301.678 145.182C299.536 142.887 296.824 141.742 293.526 141.742C290.23 141.742 287.511 142.887 285.376 145.182C283.238 147.477 282.168 150.355 282.168 153.806Z" fill="white"/>
<path d="M322.068 175.108V133.032H332.367V166.281H349.549V175.108H322.068Z" fill="white"/>
<path d="M354.551 175.108V133.032H369.498C376.167 133.032 381.453 134.884 385.357 138.592C389.262 142.301 391.215 147.43 391.215 153.981C391.215 160.572 389.262 165.741 385.357 169.489C381.453 173.233 376.167 175.108 369.498 175.108H354.551ZM364.85 166.281H369.087C372.695 166.281 375.511 165.222 377.53 163.105C379.554 160.985 380.561 157.942 380.561 153.981C380.561 150.058 379.539 147.061 377.502 144.98C375.461 142.898 372.655 141.858 369.087 141.858H364.85V166.281Z" fill="white"/>
<path d="M397.923 175.108H408.222V133.032H397.923V175.108Z" fill="white"/>
<path d="M417.049 175.108V133.032H427.464L439.118 152.686C439.59 153.509 440.12 154.521 440.702 155.717C441.293 156.913 441.765 157.906 442.117 158.69L442.646 159.868H442.765C442.45 156.845 442.294 154.452 442.294 152.686V133.032H452.593V175.108H442.236L430.524 155.51C430.052 154.688 429.522 153.68 428.932 152.48C428.349 151.284 427.877 150.294 427.525 149.508L426.996 148.329H426.877C427.192 151.353 427.348 153.745 427.348 155.51V175.108H417.049Z" fill="white"/>
<path d="M459.186 153.982C459.186 147.823 461.274 142.671 465.45 138.535C469.63 134.395 474.896 132.322 481.255 132.322C487.806 132.322 493.2 134.189 497.438 137.913L492.492 145.626C491.275 144.527 489.706 143.603 487.787 142.861C485.863 142.114 484.018 141.741 482.255 141.741C478.094 141.741 474.987 142.867 472.924 145.126C470.866 147.381 469.836 150.215 469.836 153.63C469.836 157.509 471 160.609 473.338 162.925C475.672 165.242 478.526 166.398 481.9 166.398C484.96 166.398 487.806 165.379 490.434 163.338V160.101H484.488V151.335H499.555V175.109H490.963V173.931L491.022 172.166H490.906C489.647 173.263 488.008 174.145 485.99 174.811C483.97 175.479 481.922 175.813 479.842 175.813C474.19 175.813 469.336 173.833 465.272 169.871C461.212 165.909 459.186 160.609 459.186 153.982Z" fill="white"/>
<path d="M520.607 153.982C520.607 147.783 522.677 142.621 526.817 138.503C530.953 134.385 536.242 132.322 542.677 132.322C545.617 132.322 548.481 132.826 551.269 133.826C554.053 134.827 556.445 136.31 558.446 138.271L553.679 146.035C552.269 144.782 550.609 143.753 548.705 142.947C546.802 142.142 544.95 141.741 543.145 141.741C539.222 141.741 536.261 142.911 534.259 145.242C532.258 147.577 531.258 150.411 531.258 153.743C531.258 157.158 532.287 160.119 534.35 162.631C536.409 165.143 539.342 166.398 543.145 166.398C547.146 166.398 550.873 164.673 554.327 161.218L559.625 168.75C555.071 173.459 549.423 175.813 542.677 175.813C536.006 175.813 530.659 173.765 526.639 169.665C522.615 165.565 520.607 160.337 520.607 153.982Z" fill="white"/>
<path d="M561.566 153.806C561.566 147.683 563.625 142.575 567.747 138.471C571.865 134.371 577.139 132.323 583.574 132.323C590.009 132.323 595.286 134.371 599.405 138.471C603.522 142.575 605.585 147.683 605.585 153.806C605.585 160.081 603.522 165.319 599.405 169.517C595.286 173.718 590.009 175.814 583.574 175.814C577.139 175.814 571.865 173.718 567.747 169.517C563.625 165.319 561.566 160.081 561.566 153.806ZM572.217 153.806C572.217 157.417 573.286 160.414 575.425 162.811C577.559 165.199 580.278 166.399 583.574 166.399C586.873 166.399 589.585 165.199 591.726 162.811C593.862 160.414 594.931 157.417 594.931 153.806C594.931 150.355 593.862 147.477 591.726 145.182C589.585 142.887 586.873 141.742 583.574 141.742C580.278 141.742 577.559 142.887 575.425 145.182C573.286 147.477 572.217 150.355 572.217 153.806Z" fill="white"/>
<path d="M612.116 175.108V133.032H626.768C630.494 133.032 633.221 133.365 634.946 134.032C637.382 134.97 639.282 136.493 640.656 138.592C642.03 140.692 642.714 143.25 642.714 146.274C642.714 148.626 642.168 150.87 641.069 153.009C639.97 155.152 638.422 156.729 636.418 157.748V157.866C636.813 158.378 637.338 159.218 638.009 160.397L646.188 175.108H634.71L627.24 160.922H622.414V175.108H612.116ZM622.414 152.096H626.888C628.573 152.096 629.886 151.65 630.828 150.744C631.77 149.845 632.242 148.569 632.242 146.922C632.242 144.602 631.42 143.113 629.77 142.446C628.868 142.054 627.573 141.858 625.884 141.858H622.414V152.096Z" fill="white"/>
<path d="M650.836 175.108V133.032H668.316C672.395 133.032 675.698 134.384 678.231 137.092C680.758 139.8 682.027 143.269 682.027 147.506C682.027 151.784 680.758 155.286 678.231 158.012C675.698 160.741 672.395 162.101 668.316 162.101H661.135V175.108H650.836ZM661.135 153.274H666.196C667.922 153.274 669.244 152.745 670.168 151.686C671.09 150.628 671.55 149.236 671.55 147.506C671.55 145.785 671.1 144.406 670.198 143.388C669.295 142.369 668.019 141.858 666.374 141.858H661.135V153.274Z" fill="white"/>
<path d="M683.437 170.282C683.437 167.618 685.597 165.457 688.262 165.457H688.265C690.93 165.457 693.09 167.618 693.09 170.282C693.09 172.946 690.93 175.108 688.265 175.108H688.262C685.597 175.108 683.437 172.946 683.437 170.282Z" fill="white"/>
<path d="M140.991 50.1521H69.1124V91.4668H141.002V103.828C141.002 124.745 135.1 141.624 103.298 141.7H69.1124V196.251C80.9164 203.591 89.4684 206.117 89.4684 206.117C89.4684 206.117 178.714 175.127 178.714 49.7575V12.2628C178.714 33.1868 169.466 49.7681 140.991 50.1521Z" fill="#145532"/>
</g>
</g>
<defs>
<clipPath id="clip0_1806_5210">
<rect width="696" height="208" fill="white" transform="translate(0.223389)"/>
</clipPath>
</defs>
</svg>
