<svg width="693" height="207" viewBox="0 0 693 207" fill="none" xmlns="http://www.w3.org/2000/svg">
<path d="M89.2458 206.119C89.2458 206.119 0.000488281 179.775 0.000488281 49.7588V0.00012207H178.491V49.7588C178.491 175.124 89.2458 206.119 89.2458 206.119Z" fill="#51AF3E"/>
<path d="M228.074 99.8303V29.4823H271.169V34.6663C271.169 39.9543 266.881 44.2437 261.592 44.2437H245.293V59.001H266.744V63.9997C266.744 69.3903 262.374 73.7583 256.984 73.7583H245.293V99.8303H228.074Z" fill="#1D1D1B"/>
<path d="M280.908 99.8303V29.4823H305.407C311.638 29.4823 316.199 30.0397 319.084 31.157C323.151 32.7223 326.331 35.2676 328.628 38.777C330.923 42.289 332.07 46.5677 332.07 51.621C332.07 55.553 331.152 59.309 329.318 62.8836C327.48 66.461 324.888 69.101 321.542 70.8077V71.0036C322.198 71.8556 323.083 73.2663 324.203 75.2343L337.876 99.8303H318.688L306.194 76.1156H298.127V99.8303H280.908ZM298.127 61.357H305.606C308.423 61.357 310.619 60.6063 312.196 59.0956C313.77 57.5903 314.556 55.4597 314.556 52.7037C314.556 48.829 313.179 46.3356 310.427 45.2223C308.916 44.569 306.751 44.2437 303.931 44.2437H298.127V61.357Z" fill="#1D1D1B"/>
<path d="M345.65 99.8303V29.4823H389.732V44.2437H362.869V57.029H384.32V71.7863H362.869V85.073H391.109V99.8303H345.65Z" fill="#1D1D1B"/>
<path d="M402.126 99.8303V29.4823H446.207V44.2437H419.345V57.029H440.795V71.7863H419.345V85.073H447.585V99.8303H402.126Z" fill="#1D1D1B"/>
<path d="M458.601 99.8303V29.4823H483.592C494.74 29.4823 503.577 32.5783 510.107 38.777C516.635 44.9796 519.901 53.5557 519.901 64.5117C519.901 75.5277 516.635 84.1703 510.107 90.4343C503.577 96.6983 494.74 99.8303 483.592 99.8303H458.601ZM475.82 85.073H482.904C488.936 85.073 493.645 83.3036 497.02 79.7623C500.403 76.2196 502.088 71.1343 502.088 64.5117C502.088 57.9503 500.384 52.933 496.976 49.4557C493.561 45.9757 488.871 44.2437 482.904 44.2437H475.82V85.073Z" fill="#1D1D1B"/>
<path d="M527.273 64.2146C527.273 53.9773 530.721 45.4399 537.605 38.5786C544.492 31.7266 553.312 28.2973 564.075 28.2973C574.831 28.2973 583.651 31.7266 590.541 38.5786C597.429 45.4399 600.869 53.9773 600.869 64.2146C600.869 74.7053 597.429 83.4639 590.541 90.4853C583.651 97.5039 574.831 101.009 564.075 101.009C553.312 101.009 544.492 97.5039 537.605 90.4853C530.721 83.4639 527.273 74.7053 527.273 64.2146ZM545.08 64.2146C545.08 70.2506 546.867 75.2639 550.441 79.2693C554.016 83.2639 558.565 85.2693 564.075 85.2693C569.581 85.2693 574.124 83.2639 577.699 79.2693C581.272 75.2639 583.06 70.2506 583.06 64.2146C583.06 58.4439 581.272 53.6333 577.699 49.7946C574.124 45.9586 569.581 44.0453 564.075 44.0453C558.565 44.0453 554.016 45.9586 550.441 49.7946C546.867 53.6333 545.08 58.4439 545.08 64.2146Z" fill="#1D1D1B"/>
<path d="M609.036 99.8303L614.84 29.4823H633.537L643.768 59.193L647.309 70.8077H647.509C648.821 66.085 650 62.209 651.05 59.193L661.28 29.4823H679.978L685.685 99.8303H668.469L666.301 68.1476C666.166 66.5743 666.105 64.805 666.105 62.837C666.105 60.865 666.134 59.2943 666.2 58.109L666.301 56.3437H666.105C664.529 61.2637 663.216 65.1956 662.172 68.1476L654.792 88.517H640.034L632.653 68.1476L628.713 56.3437H628.517C628.778 60.6717 628.778 64.605 628.517 68.1476L626.356 99.8303H609.036Z" fill="#1D1D1B"/>
<path d="M228.865 175.108V133.032H239.163V149.862H254.465V133.032H264.761V175.108H254.465V158.628H239.163V175.108H228.865Z" fill="#1D1D1B"/>
<path d="M271.294 153.806C271.294 147.683 273.353 142.575 277.476 138.471C281.593 134.371 286.868 132.323 293.302 132.323C299.737 132.323 305.014 134.371 309.133 138.471C313.25 142.575 315.313 147.683 315.313 153.806C315.313 160.081 313.25 165.319 309.133 169.517C305.014 173.718 299.737 175.814 293.302 175.814C286.868 175.814 281.593 173.718 277.476 169.517C273.353 165.319 271.294 160.081 271.294 153.806ZM281.945 153.806C281.945 157.417 283.014 160.414 285.153 162.811C287.288 165.199 290.006 166.399 293.302 166.399C296.601 166.399 299.313 165.199 301.454 162.811C303.59 160.414 304.66 157.417 304.66 153.806C304.66 150.355 303.59 147.477 301.454 145.182C299.313 142.887 296.601 141.742 293.302 141.742C290.006 141.742 287.288 142.887 285.153 145.182C283.014 147.477 281.945 150.355 281.945 153.806Z" fill="#1D1D1B"/>
<path d="M321.844 175.108V133.032H332.143V166.281H349.326V175.108H321.844Z" fill="#1D1D1B"/>
<path d="M354.328 175.108V133.032H369.275C375.944 133.032 381.229 134.884 385.133 138.592C389.039 142.301 390.992 147.43 390.992 153.981C390.992 160.572 389.039 165.741 385.133 169.489C381.229 173.233 375.944 175.108 369.275 175.108H354.328ZM364.627 166.281H368.864C372.472 166.281 375.288 165.222 377.307 163.105C379.331 160.985 380.337 157.942 380.337 153.981C380.337 150.058 379.316 147.061 377.279 144.98C375.237 142.898 372.432 141.858 368.864 141.858H364.627V166.281Z" fill="#1D1D1B"/>
<path d="M397.7 175.108H407.999V133.032H397.7V175.108Z" fill="#1D1D1B"/>
<path d="M416.826 175.108V133.032H427.24L438.895 152.686C439.367 153.509 439.896 154.521 440.479 155.717C441.07 156.913 441.542 157.906 441.894 158.69L442.423 159.868H442.542C442.227 156.845 442.071 154.452 442.071 152.686V133.032H452.37V175.108H442.012L430.3 155.51C429.828 154.688 429.299 153.68 428.708 152.48C428.126 151.284 427.654 150.294 427.302 149.508L426.772 148.329H426.654C426.968 151.353 427.124 153.745 427.124 155.51V175.108H416.826Z" fill="#1D1D1B"/>
<path d="M458.962 153.982C458.962 147.823 461.05 142.671 465.226 138.535C469.406 134.395 474.673 132.322 481.031 132.322C487.582 132.322 492.977 134.189 497.214 137.913L492.269 145.626C491.051 144.527 489.482 143.603 487.563 142.861C485.639 142.114 483.794 141.741 482.031 141.741C477.87 141.741 474.763 142.867 472.701 145.126C470.642 147.381 469.613 150.215 469.613 153.63C469.613 157.509 470.777 160.609 473.114 162.925C475.449 165.242 478.302 166.398 481.677 166.398C484.737 166.398 487.582 165.379 490.21 163.338V160.101H484.265V151.335H499.331V175.109H490.739V173.931L490.798 172.166H490.682C489.423 173.263 487.785 174.145 485.766 174.811C483.746 175.479 481.698 175.813 479.618 175.813C473.966 175.813 469.113 173.833 465.049 169.871C460.989 165.909 458.962 160.609 458.962 153.982Z" fill="#1D1D1B"/>
<path d="M520.384 153.982C520.384 147.783 522.453 142.621 526.593 138.503C530.729 134.385 536.019 132.322 542.453 132.322C545.393 132.322 548.257 132.826 551.045 133.826C553.829 134.827 556.221 136.31 558.223 138.271L553.456 146.035C552.045 144.782 550.385 143.753 548.481 142.947C546.579 142.142 544.727 141.741 542.921 141.741C538.999 141.741 536.037 142.911 534.036 145.242C532.035 147.577 531.035 150.411 531.035 153.743C531.035 157.158 532.064 160.119 534.127 162.631C536.185 165.143 539.119 166.398 542.921 166.398C546.923 166.398 550.649 164.673 554.104 161.218L559.401 168.75C554.848 173.459 549.2 175.813 542.453 175.813C535.783 175.813 530.436 173.765 526.416 169.665C522.392 165.565 520.384 160.337 520.384 153.982Z" fill="#1D1D1B"/>
<path d="M561.343 153.806C561.343 147.683 563.401 142.575 567.524 138.471C571.641 134.371 576.916 132.323 583.351 132.323C589.785 132.323 595.063 134.371 599.181 138.471C603.299 142.575 605.361 147.683 605.361 153.806C605.361 160.081 603.299 165.319 599.181 169.517C595.063 173.718 589.785 175.814 583.351 175.814C576.916 175.814 571.641 173.718 567.524 169.517C563.401 165.319 561.343 160.081 561.343 153.806ZM571.993 153.806C571.993 157.417 573.063 160.414 575.201 162.811C577.336 165.199 580.055 166.399 583.351 166.399C586.649 166.399 589.361 165.199 591.503 162.811C593.639 160.414 594.708 157.417 594.708 153.806C594.708 150.355 593.639 147.477 591.503 145.182C589.361 142.887 586.649 141.742 583.351 141.742C580.055 141.742 577.336 142.887 575.201 145.182C573.063 147.477 571.993 150.355 571.993 153.806Z" fill="#1D1D1B"/>
<path d="M611.892 175.108V133.032H626.544C630.271 133.032 632.998 133.365 634.723 134.032C637.159 134.97 639.059 136.493 640.432 138.592C641.807 140.692 642.491 143.25 642.491 146.274C642.491 148.626 641.944 150.87 640.846 153.009C639.747 155.152 638.199 156.729 636.195 157.748V157.866C636.59 158.378 637.115 159.218 637.786 160.397L645.964 175.108H634.487L627.016 160.922H622.191V175.108H611.892ZM622.191 152.096H626.664C628.35 152.096 629.663 151.65 630.604 150.744C631.547 149.845 632.019 148.569 632.019 146.922C632.019 144.602 631.196 143.113 629.547 142.446C628.644 142.054 627.35 141.858 625.66 141.858H622.191V152.096Z" fill="#1D1D1B"/>
<path d="M650.613 175.108V133.032H668.093C672.171 133.032 675.474 134.384 678.007 137.092C680.534 139.8 681.803 143.269 681.803 147.506C681.803 151.784 680.534 155.286 678.007 158.012C675.474 160.741 672.171 162.101 668.093 162.101H660.911V175.108H650.613ZM660.911 153.274H665.973C667.698 153.274 669.021 152.745 669.945 151.686C670.866 150.628 671.326 149.236 671.326 147.506C671.326 145.785 670.877 144.406 669.974 143.388C669.071 142.369 667.795 141.858 666.15 141.858H660.911V153.274Z" fill="#1D1D1B"/>
<path d="M683.213 170.282C683.213 167.618 685.373 165.457 688.038 165.457H688.041C690.707 165.457 692.867 167.618 692.867 170.282C692.867 172.946 690.707 175.108 688.041 175.108H688.038C685.373 175.108 683.213 172.946 683.213 170.282Z" fill="#1D1D1B"/>
<path d="M140.768 50.1521H68.889V91.4668H140.778V103.828C140.778 124.745 134.877 141.624 103.074 141.7H68.889V196.251C80.693 203.591 89.245 206.117 89.245 206.117C89.245 206.117 178.49 175.127 178.49 49.7575V12.2628C178.49 33.1868 169.242 49.7681 140.768 50.1521Z" fill="#145532"/>
</svg>
